<svg width="21" height="20" viewBox="0 0 21 20" fill="none" xmlns="http://www.w3.org/2000/svg">
<path d="M10.5 1.25C5.42637 1.25 1.3125 5.16797 1.3125 10C1.3125 14.832 5.42637 18.75 10.5 18.75C15.5736 18.75 19.6875 14.832 19.6875 10C19.6875 5.16797 15.5736 1.25 10.5 1.25ZM14.4683 7.14258L10.1493 12.8457C10.089 12.9259 10.0094 12.9913 9.91718 13.0364C9.82499 13.0815 9.72284 13.1051 9.61919 13.1051C9.51554 13.1051 9.41339 13.0815 9.3212 13.0364C9.229 12.9913 9.14943 12.9259 9.08906 12.8457L6.53174 9.4707C6.45381 9.36719 6.53174 9.22266 6.66504 9.22266H7.62686C7.83604 9.22266 8.03496 9.31836 8.15801 9.48242L9.61816 11.4121L12.842 7.1543C12.965 6.99219 13.1619 6.89453 13.3731 6.89453H14.335C14.4683 6.89453 14.5462 7.03906 14.4683 7.14258Z" fill="#43B998"/>
</svg>
